<svg width="800" height="883" viewBox="0 0 800 883" fill="none" xmlns="http://www.w3.org/2000/svg">
<path fill-rule="evenodd" clip-rule="evenodd" d="M56.1651 0.527217C56.1651 2.63927 79.4906 168.012 79.8363 168.353C80.0558 168.568 80.4024 168.568 80.6075 168.353C81.0436 167.894 89.96 67.5779 90.0351 62.2893C90.0765 59.3704 87.0957 53.4217 73.9151 30.1129C58.0608 2.076 56.1651 -1.08268 56.1651 0.527217ZM726.389 29.875L709.659 59.5848L710.146 65.8147C712.204 92.1129 718.802 167.281 719.146 168.33C719.382 169.051 719.762 169.457 719.992 169.232C720.222 169.007 725.645 131.603 732.045 86.1105C738.445 40.6186 743.908 2.6562 744.186 1.75157C745.911 -3.86616 741.158 3.64452 726.389 29.875ZM96.1893 77.4508C95.886 80.1665 94.5448 95.5057 93.2085 111.539C91.8721 127.572 90.1401 147.249 89.3612 155.266C86.7693 181.926 85.768 177.064 103.765 225.255C112.47 248.567 128.473 291.156 139.327 319.898C150.181 348.641 159.347 373.271 159.697 374.631C160.297 376.965 157.077 388.792 155.333 390.663C154.935 391.09 154.172 390.244 153.636 388.782C153.102 387.321 138.048 347.194 120.184 299.611C102.32 252.029 87.2815 211.934 86.7636 210.512C86.2465 209.09 85.5206 207.926 85.1499 207.926C83.9609 207.926 77.0326 288.315 77.7605 293.67C78.1273 296.373 81.2525 306.009 84.7051 315.083C88.1577 324.159 102.712 362.898 117.047 401.171L143.112 470.757L143.804 480.622C144.458 489.936 144.234 496.245 143.135 499.439C142.868 500.214 141.005 496.406 138.994 490.975C117.854 433.88 76.7178 324.982 75.4382 322.727C74.928 321.827 74.4908 322.593 74.0942 325.078C73.504 328.781 68.5735 381.721 60.5265 470.757C58.1426 497.135 55.9253 521.573 55.5999 525.065L55.0068 531.415L115.818 591.539C154.176 629.464 178.297 652.611 181.145 654.229C183.629 655.639 199.348 664.923 216.075 674.859C253.176 696.898 251.067 695.756 250.455 693.467C250.192 692.487 243.135 682.39 234.773 671.026C226.41 659.664 218.013 648.251 216.115 645.665C212.865 641.24 213.172 641.428 221.305 648.831C263.398 687.148 308.895 708.884 364.259 717.126C378.497 719.245 410.134 720.017 425.455 718.617C483.215 713.343 531.392 692.242 578.876 651.422C582.046 648.697 581.827 649.022 565.156 671.722C550.235 692.039 547.905 695.688 550.464 694.729C551.217 694.447 567.794 684.784 587.301 673.256L622.768 652.297L636.741 638.637C644.426 631.124 671.897 604.166 697.787 578.731L744.86 532.485L744.212 522.779C743.855 517.441 740.778 482.818 737.373 445.838C733.969 408.858 730.037 365.695 728.636 349.921C726.279 323.39 725.826 319.767 725.009 320.848C724.791 321.137 664.841 481.379 659.642 495.573C659.19 496.807 658.661 497.654 658.468 497.453C658.274 497.252 658.656 489.048 659.316 479.221L660.516 461.354L674.235 425.62C688.426 388.659 721.046 300.963 722.576 295.661C723.174 293.587 722.388 281.008 720.049 255.225C716.09 211.588 715.722 208.427 714.722 209.484C713.438 210.839 707.882 225.219 685.347 285.506C645.067 393.26 647.171 387.789 646.367 386.876C645.264 385.624 641.543 374.775 641.543 372.811C641.543 371.8 646.567 357.668 652.706 341.405C669.757 296.24 703.898 204.97 708.088 193.35C712.455 181.239 712.759 175.743 710.403 151.504C709.624 143.488 707.888 123.811 706.546 107.777C703.871 75.8211 703.386 71.8669 702.289 73.0969C701.883 73.552 695.22 90.8509 687.483 111.539C633.648 255.478 610.682 316.305 609.811 317.264C609.448 317.663 606.381 314.497 602.993 310.23C599.607 305.963 591.207 296.848 584.328 289.974L571.819 277.476L569.211 267.386C564.068 247.488 556.527 230.694 545.597 214.794C516.407 172.329 470.326 144.938 420.053 140.169C404.012 138.648 380.238 139.529 367.628 142.112C300.975 155.767 248.613 204.829 233.16 268.104C232.087 272.497 230.806 276.827 230.313 277.727C229.82 278.627 224.554 284.151 218.61 290.002C212.668 295.854 204.134 305.176 199.647 310.718C192.188 319.933 191.42 320.613 190.673 318.667C185.325 304.735 160.677 239.466 149.386 209.337C106.565 95.0656 97.9541 72.5138 97.1405 72.5138C96.9201 72.5138 96.4926 74.735 96.1893 77.4508ZM51.8142 153.884C52.0876 155.42 54.5014 173.391 57.177 193.821C63.7663 244.129 70.0649 286.649 70.7581 285.506C71.072 284.989 72.9716 265.1 74.9799 241.309L78.6309 198.052L65.8036 175.484C58.7482 163.071 52.6018 152.505 52.1454 152.004C51.6688 151.481 51.5273 152.283 51.8142 153.884ZM734.627 175.178L721.323 198.788L725.216 242.515C727.358 266.566 729.327 286.456 729.592 286.715C729.858 286.974 730.263 286.596 730.493 285.876C730.723 285.155 734.86 255.791 739.687 220.621C744.513 185.451 748.701 155.512 748.995 154.09C749.289 152.669 749.169 151.518 748.729 151.536C748.29 151.554 741.945 162.192 734.627 175.178ZM417.767 155.355C444.627 157.984 471.887 168.373 494.434 184.571C505.186 192.296 521.302 208.316 529.164 219.094C532.701 223.943 537.939 232.407 540.802 237.901C545.772 247.438 551.555 261.527 550.5 261.527C550.226 261.527 547.829 260.098 545.175 258.352C541.574 255.984 538.475 252.462 532.969 244.482C523.554 230.84 504.438 211.852 491.534 203.327C474.079 191.794 453.058 183.124 431.654 178.627C422.98 176.805 418.606 176.497 400.845 176.463C382.944 176.43 378.756 176.711 369.877 178.544C327.012 187.391 291.28 210.801 267.608 245.543C264.258 250.458 259.615 256.162 257.288 258.219C253.359 261.691 253.035 261.814 252.757 259.926C251.988 254.699 265.126 229.662 276.198 215.252C284.358 204.632 302.464 187.791 313.405 180.642C344.15 160.557 380.625 151.719 417.767 155.355ZM420.122 191.413C445.898 194.766 470.101 204.225 489.903 218.687C497.236 224.043 512.529 237.751 512.529 238.968C512.529 239.384 509.171 238.345 505.067 236.66C496.644 233.201 481.971 228.271 476.905 227.196L473.535 226.481L477.559 230.745C482.849 236.351 489.743 245.546 492.886 251.185C495.24 255.41 496.175 256.077 507.144 261.372C521.994 268.541 538.931 279.37 540.769 282.872C543.335 287.762 547.949 303.312 549.641 312.777C551.856 325.163 551.995 348.956 549.901 357.209C549.081 360.442 548.585 363.086 548.801 363.086C550.557 363.086 557.193 358.682 561.05 354.956C569.791 346.516 570.72 344.239 573.66 324.061L574.346 319.359L579.911 330.088L578.099 333.187C577.101 334.891 575.985 337.978 575.616 340.047C574.601 345.756 569.506 354.315 564.622 358.513C559.469 362.943 549.145 367.989 540.419 370.341C530.669 372.969 500.177 372.659 486.575 369.794C462.405 364.702 440.481 353.676 422.652 337.645C413.472 329.391 408.15 321.314 404.618 310.273C401.803 301.476 400.413 299.58 397.563 300.649C396.148 301.179 395.934 301.645 391.722 313.427C386.831 327.108 379.612 336.665 367.42 345.603C348.379 359.56 324.346 368.597 298.307 371.592C276.863 374.058 253.162 369.484 241.198 360.572C236.731 357.243 230.984 348.288 228.445 340.696C227.288 337.236 225.527 333.085 224.532 331.47C222.727 328.539 222.727 328.53 225.315 324.009C226.739 321.519 228.026 319.878 228.176 320.361C228.324 320.845 229.096 325.57 229.891 330.863C231.515 341.664 233.543 346.277 239.405 352.496C243.651 357 252.443 363.277 253.561 362.602C253.924 362.383 253.32 359.757 252.217 356.768C250.513 352.144 250.221 349.224 250.261 337.226C250.313 321.971 251.456 313.016 255.111 299.241C259.325 283.356 260.197 282.034 271.071 275.031C276.325 271.647 286.068 266.103 292.722 262.711C301.775 258.096 305.212 255.834 306.377 253.725C309.754 247.615 317.189 237.279 321.902 232.14C324.631 229.166 326.43 226.733 325.901 226.733C324.297 226.733 309.369 232.06 298.458 236.523L288.187 240.727L290.841 237.324C294.993 231.997 308.946 220.45 319.197 213.856C348.657 194.906 384.939 186.838 420.122 191.413ZM0.403029 197.463C0.87576 199.519 4.27153 222.92 7.94843 249.467C44.109 510.507 46.1559 524.832 47.472 526.117C48.8035 527.418 49.1617 524.787 51.3521 497.558C52.4545 483.852 54.873 455.712 56.7264 435.024C66.0356 331.097 67.5684 312.048 66.776 310.107C64.8937 305.499 1.45921 194.347 0.540706 194.048C-0.131323 193.829 -0.176572 194.943 0.403029 197.463ZM795.24 200.638C738.87 300.071 733.008 310.721 733.008 313.685C733.008 315.414 736.023 351.04 739.71 392.853C743.396 434.666 747.523 481.97 748.881 497.973C750.239 513.977 751.579 527.294 751.859 527.568C752.14 527.841 752.69 527.556 753.084 526.934C753.889 525.662 753.795 526.328 780.194 336.286C790.755 260.257 799.582 197.312 799.81 196.407C800.685 192.924 798.43 195.012 795.24 200.638ZM389.407 224.962C366.485 227.559 347.297 236.351 330.413 251.994C315.836 265.5 306.842 280.087 301.634 298.671C298.474 309.949 297.941 331.293 300.522 343.338C302.482 352.491 305.552 361.472 307.701 364.343C308.832 365.854 309.35 365.861 315.723 364.456L322.536 362.953L321.149 356.201C319.013 345.812 319.323 327.563 321.79 318.419C328.019 295.331 345.423 276.267 370.215 265.375C389.657 256.833 412.101 257.286 432.286 266.625C447.241 273.546 462.084 285.828 469.653 297.545C479.097 312.165 482.764 332.268 479.751 352.909C479.199 356.696 478.657 360.616 478.548 361.618C478.391 363.06 479.46 363.787 483.645 365.087C491.599 367.558 492.124 367.426 494.341 362.381C502.977 342.731 504.622 317.285 498.575 296.903C486.778 257.145 453.158 229.508 410.954 224.878C401.243 223.813 399.482 223.82 389.407 224.962ZM214.038 355.598C212.548 365.67 212.91 408.946 214.604 423.269C218.211 453.754 230.286 500.241 239.397 518.716C246.284 532.681 265.572 554.257 281.706 566.041C345.24 612.447 445.077 615.368 511.566 572.768C523.882 564.876 535.366 555.32 543.003 546.607C550.628 537.908 564.82 517.096 568.434 509.312C575.086 494.991 584.282 457.883 588.127 429.852C591.07 408.399 591.046 373.499 588.074 352.742L587.602 349.451L589.473 353.382C591.919 358.528 595.914 374.305 597.762 386.125C606.027 438.983 590.868 494.492 556.836 535.981C548.666 545.94 531.675 562.426 522.638 569.161C496.664 588.518 465.014 601.868 432.617 607.133C419.612 609.246 394.836 609.958 381.543 608.601C312.806 601.584 253.18 561.352 222.657 501.395C202.121 461.059 196.664 412.232 207.845 368.887C210.178 359.844 214.041 348.646 214.629 349.22C214.799 349.386 214.533 352.256 214.038 355.598ZM196.603 373.43C192.139 390.387 190.622 403.148 190.564 424.209C190.503 446.618 191.791 457.451 196.661 475.536C204.364 504.134 219.28 532.908 237.898 555.085C246.189 564.962 263.119 580.74 273.756 588.504C309.912 614.894 349.729 628.573 394.238 629.893C429.606 630.942 461.415 624.48 491.828 610.069C548.107 583.403 586.921 538.297 604.46 479.18C609.219 463.141 610.914 451.36 611.438 430.686C612.031 407.322 610.604 393.648 605.416 372.96C604.937 371.054 605.025 370.443 605.685 371.079C606.956 372.301 610.158 386.178 612.312 399.802C614.68 414.777 614.693 445.131 612.338 459.853C607.774 488.397 597.084 516.549 581.839 540.179C576.039 549.168 575.75 549.925 571.133 568.305C568.523 578.694 566.533 587.622 566.712 588.144C566.89 588.666 569.792 585.966 573.159 582.143C592.211 560.524 605.515 537.854 614.963 510.914C619.286 498.587 624.212 479.268 624.212 474.641C624.212 473.28 624.646 472.168 625.175 472.168C625.705 472.168 626.138 472.463 626.138 472.823C626.138 473.185 627.69 482.53 629.587 493.591L633.034 513.703L631.407 520.912C626.248 543.772 613.86 572.045 599.407 593.945C581.419 621.202 553.088 648.125 524.907 664.742C514.117 671.104 493.401 680.812 481.375 685.141C463.001 691.756 433.411 697.873 419.925 697.845L414.805 697.833L427.321 691.813C441.05 685.21 458.837 674.159 470.337 665.088C481.253 656.476 496.545 640.324 507.848 625.466C517.16 613.226 530.173 593.468 529.413 592.725C529.227 592.545 525.117 595.194 520.278 598.614C504.631 609.671 493.314 615.822 477.296 621.973C450.051 632.437 416.463 637.268 387.062 634.951C349.969 632.028 323.746 623.739 291.605 604.782C285.367 601.101 280.04 598.307 279.769 598.572C278.881 599.44 286.934 611.711 297.149 625.055C313.905 646.943 330.041 662.272 349.746 675.023C359.199 681.139 381.886 691.973 391.929 695.167C395.763 696.387 398.905 697.765 398.909 698.228C398.915 698.714 394.532 698.797 388.569 698.424C328.146 694.639 275.912 671.756 233.797 630.622C201.526 599.103 180.681 562.105 170.316 517.952C168.239 509.107 168.392 505.762 171.703 487.577C175.794 465.105 175.552 465.584 177.51 476.083C179.848 488.635 185.254 507.589 189.537 518.253C197.403 537.842 211.685 562.157 224.115 577.123C230.191 584.436 239.136 593.748 239.627 593.269C239.842 593.059 237.932 584.349 235.383 573.911C231.786 559.184 230.152 554.142 228.087 551.401C212.746 531.035 200.098 504.785 193.987 480.631C185.514 447.143 185.514 411.625 193.986 378.132C196.18 369.461 197.546 365.438 198.105 366.011C198.3 366.213 197.624 369.551 196.603 373.43ZM703.199 598.924C578.328 700.208 473.614 786.17 474.297 786.837C474.585 787.118 569.912 765.081 572.703 764.089C576.952 762.576 611.301 743.404 613.778 741.163C615.237 739.841 636.014 708.505 659.95 671.525C707.264 598.429 709.224 595.335 708.191 595.398C707.808 595.421 705.561 597.008 703.199 598.924ZM92.7512 596.841C92.7512 598.733 183.775 738.478 186.8 741.227C188.291 742.584 198.177 748.363 208.768 754.07L228.023 764.445L275.89 775.436C302.216 781.481 324.162 786.281 324.657 786.103C325.153 785.925 322.243 782.999 318.191 779.603C272.041 740.911 99.0767 600.004 93.8892 596.871C93.2634 596.494 92.7512 596.48 92.7512 596.841ZM176.126 656.231C175.81 656.539 175.573 657.463 175.601 658.282C175.643 659.531 287.928 752.044 292.098 754.266C294.246 755.409 385.586 776.955 386.721 776.585C387.271 776.406 385.799 775.201 383.451 773.906C377.591 770.676 186.758 661.628 181.181 658.324C178.718 656.864 176.443 655.921 176.126 656.231ZM522.156 713.9C466.82 745.478 419.606 772.42 417.235 773.773C414.865 775.127 413.402 776.388 413.986 776.578C414.568 776.768 435.787 772.028 461.139 766.044C494.596 758.147 508.04 754.591 510.174 753.075C519.559 746.409 625.22 658.962 624.927 658.103C624.732 657.533 624.167 656.937 623.671 656.778C623.175 656.619 577.493 682.324 522.156 713.9ZM344.671 791.73C341.183 795.494 343.879 801.295 349.116 801.295C351.813 801.295 354.631 798.305 354.631 795.443C354.631 793.072 351.189 790.011 348.522 790.011C347.28 790.011 345.547 790.784 344.671 791.73ZM449.534 792.428C447.245 794.664 447.69 798.083 450.558 800.286C451.953 801.358 453.687 802.235 454.41 802.235C456.498 802.235 459.575 798.681 459.575 796.269C459.575 791.735 452.87 789.171 449.534 792.428ZM379.331 801.134C378.455 802.08 377.738 803.698 377.738 804.731C377.738 806.875 381.496 810.699 383.603 810.699C386.353 810.699 389.291 807.831 389.291 805.149C389.291 800.104 382.734 797.461 379.331 801.134ZM415.345 801.238C412.735 803.787 412.838 806.129 415.674 808.731C418.595 811.411 421.714 811.016 424.284 807.642L426.254 805.056L424.285 802.47C421.789 799.19 417.978 798.666 415.345 801.238Z" fill="#F2F3F2"/>
<path d="M704.447 802.075L750.745 794.052C796.571 785.824 806.145 785.073 787.926 791.135C778.886 794.143 746.583 801.916 556.659 846.785C522.768 854.792 474.515 866.215 449.431 872.171L403.82 883L395.514 881.116C390.945 880.08 342.365 868.601 287.558 855.607C232.751 842.612 154.982 824.18 114.737 814.647C40.9459 797.166 18.536 791.503 14.1254 789.226C12.8016 788.542 12.0266 787.966 12.404 787.945C14.8562 787.811 45.239 792.094 58.6286 794.463C58.6286 794.463 102.756 801.896 104.203 802.319C106.094 802.872 172.252 814.591 285.633 834.458C319.788 840.442 359.501 847.438 373.884 850.005C388.268 852.573 401.602 854.673 403.515 854.673C405.429 854.673 434.604 849.797 468.348 843.836C502.092 837.875 568.26 826.21 615.389 817.912C662.518 809.614 702.594 802.488 704.447 802.075Z" fill="#F2F3F2"/>
</svg>
